<svg width="436" height="448" viewBox="0 0 436 448" fill="none" xmlns="http://www.w3.org/2000/svg">
<path d="M53.8126 158.079C82.7115 158.079 106.139 134.652 106.139 105.752C106.139 76.853 82.7115 53.4258 53.8126 53.4258C24.9136 53.4258 1.48633 76.853 1.48633 105.752C1.48633 134.652 24.9136 158.079 53.8126 158.079Z" fill="#5A60F3"/>
<path d="M53.8126 158.079C82.7115 158.079 106.139 134.652 106.139 105.752C106.139 76.853 82.7115 53.4258 53.8126 53.4258C24.9136 53.4258 1.48633 76.853 1.48633 105.752C1.48633 134.652 24.9136 158.079 53.8126 158.079Z" fill="#EE56FF" fill-opacity="0.12"/>
<path d="M382.815 158.079C353.916 158.079 330.488 134.652 330.488 105.752C330.488 76.853 353.916 53.4258 382.815 53.4258C411.713 53.4258 435.14 76.853 435.14 105.752C435.14 134.652 411.713 158.079 382.815 158.079Z" fill="#5A60F3"/>
<path d="M382.815 158.079C353.916 158.079 330.488 134.652 330.488 105.752C330.488 76.853 353.916 53.4258 382.815 53.4258C411.713 53.4258 435.14 76.853 435.14 105.752C435.14 134.652 411.713 158.079 382.815 158.079Z" fill="#EE56FF" fill-opacity="0.12"/>
<path fill-rule="evenodd" clip-rule="evenodd" d="M24.6218 246.818C18.7686 227.306 15.8477 205.952 15.8477 182.915C15.8477 71.8674 105.842 0 217.054 0C328.267 0 418.261 71.8674 418.261 182.915C418.261 206.832 414.969 228.933 409.115 249.035C414.969 265.494 418.261 282.138 418.261 298.151C418.261 360.339 328.267 407.169 217.054 407.169C105.842 407.169 15.8477 360.339 15.8477 298.151C15.8477 280.716 18.7686 263.431 24.6218 246.818Z" fill="#5A60F3"/>
<path fill-rule="evenodd" clip-rule="evenodd" d="M24.6218 246.818C18.7686 227.306 15.8477 205.952 15.8477 182.915C15.8477 71.8674 105.842 0 217.054 0C328.267 0 418.261 71.8674 418.261 182.915C418.261 206.832 414.969 228.933 409.115 249.035C414.969 265.494 418.261 282.138 418.261 298.151C418.261 360.339 328.267 407.169 217.054 407.169C105.842 407.169 15.8477 360.339 15.8477 298.151C15.8477 280.716 18.7686 263.431 24.6218 246.818Z" fill="#EE56FF" fill-opacity="0.12"/>
<path d="M339.743 213.174C338.441 234.267 325.349 245.866 310.457 245.866C295.566 245.866 283.507 231.013 283.507 212.714C283.507 194.416 296.064 179.371 312.793 180.29C332.201 181.4 340.814 195.947 339.743 213.174ZM147.992 211.03C150.978 232.506 141.943 245.598 126.975 248.622C112.007 251.646 99.1833 241.578 95.47 223.203C91.7184 204.79 98.9153 187.525 115.912 185.037C135.627 182.166 145.542 193.459 147.992 211.03Z" fill="black"/>
<path d="M339.743 213.174C338.441 234.267 325.349 245.866 310.457 245.866C295.566 245.866 283.507 231.013 283.507 212.714C283.507 194.416 296.064 179.371 312.793 180.29C332.201 181.4 340.814 195.947 339.743 213.174ZM147.992 211.03C150.978 232.506 141.943 245.598 126.975 248.622C112.007 251.646 99.1833 241.578 95.47 223.203C91.7184 204.79 98.9153 187.525 115.912 185.037C135.627 182.166 145.542 193.459 147.992 211.03Z" fill="#4B2E7C"/>
<path d="M183.752 260.237C183.56 248.446 200.481 242.819 216.444 242.551C232.445 242.283 249.672 247.489 249.863 259.28C250.055 271.07 229.881 286.574 217.171 286.574C204.5 286.574 183.981 271.989 183.752 260.237Z" fill="black"/>
<path d="M183.752 260.237C183.56 248.446 200.481 242.819 216.444 242.551C232.445 242.283 249.672 247.489 249.863 259.28C250.055 271.07 229.881 286.574 217.171 286.574C204.5 286.574 183.981 271.989 183.752 260.237Z" fill="#4B2E7C"/>
<path d="M46.9706 294.24C40.3733 292.432 35.8634 287.947 36.8976 284.223C37.9317 280.5 44.1183 278.946 50.7156 280.754C57.3131 282.562 61.8229 287.045 60.7888 290.769C59.7546 294.493 53.568 296.046 46.9706 294.24Z" fill="black"/>
<path d="M46.9706 294.24C40.3733 292.432 35.8634 287.947 36.8976 284.223C37.9317 280.5 44.1183 278.946 50.7156 280.754C57.3131 282.562 61.8229 287.045 60.7888 290.769C59.7546 294.493 53.568 296.046 46.9706 294.24Z" fill="#4B2E7C"/>
<path d="M90.0097 312.4C83.4124 310.592 78.9024 306.108 79.9367 302.384C80.9708 298.66 87.1574 297.106 93.7549 298.914C100.352 300.722 104.862 305.205 103.828 308.929C102.794 312.653 96.607 314.207 90.0097 312.4Z" fill="black"/>
<path d="M90.0097 312.4C83.4124 310.592 78.9024 306.108 79.9367 302.384C80.9708 298.66 87.1574 297.106 93.7549 298.914C100.352 300.722 104.862 305.205 103.828 308.929C102.794 312.653 96.607 314.207 90.0097 312.4Z" fill="#4B2E7C"/>
<path d="M53.4921 324.47C46.8947 322.662 42.385 318.179 43.4191 314.455C44.4533 310.731 50.6399 309.177 57.2373 310.985C63.8346 312.792 68.3445 317.276 67.3103 321C66.2762 324.724 60.0896 326.278 53.4921 324.47Z" fill="black"/>
<path d="M53.4921 324.47C46.8947 322.662 42.385 318.179 43.4191 314.455C44.4533 310.731 50.6399 309.177 57.2373 310.985C63.8346 312.792 68.3445 317.276 67.3103 321C66.2762 324.724 60.0896 326.278 53.4921 324.47Z" fill="#4B2E7C"/>
<path d="M387.029 294.24C393.627 292.432 398.137 287.947 397.102 284.223C396.068 280.5 389.882 278.946 383.284 280.754C376.687 282.562 372.177 287.045 373.211 290.769C374.245 294.493 380.432 296.046 387.029 294.24Z" fill="black"/>
<path d="M387.029 294.24C393.627 292.432 398.137 287.947 397.102 284.223C396.068 280.5 389.882 278.946 383.284 280.754C376.687 282.562 372.177 287.045 373.211 290.769C374.245 294.493 380.432 296.046 387.029 294.24Z" fill="#4B2E7C"/>
<path d="M343.99 312.4C350.588 310.592 355.098 306.108 354.063 302.384C353.029 298.66 346.843 297.106 340.245 298.914C333.648 300.722 329.138 305.205 330.172 308.929C331.206 312.653 337.393 314.207 343.99 312.4Z" fill="black"/>
<path d="M343.99 312.4C350.588 310.592 355.098 306.108 354.063 302.384C353.029 298.66 346.843 297.106 340.245 298.914C333.648 300.722 329.138 305.205 330.172 308.929C331.206 312.653 337.393 314.207 343.99 312.4Z" fill="#4B2E7C"/>
<path d="M380.508 324.47C387.105 322.662 391.615 318.179 390.581 314.455C389.547 310.731 383.36 309.177 376.763 310.985C370.165 312.792 365.655 317.276 366.69 321C367.724 324.724 373.91 326.278 380.508 324.47Z" fill="black"/>
<path d="M380.508 324.47C387.105 322.662 391.615 318.179 390.581 314.455C389.547 310.731 383.36 309.177 376.763 310.985C370.165 312.792 365.655 317.276 366.69 321C367.724 324.724 373.91 326.278 380.508 324.47Z" fill="#4B2E7C"/>
<path fill-rule="evenodd" clip-rule="evenodd" d="M433.969 178.551C433.844 175.506 433.508 162.661 432.962 159.616C431.703 152.744 430.947 152.432 423.518 151.222C304.098 131.623 282.817 155.36 217 156.649C151.183 155.399 129.86 131.623 10.4824 151.222C3.05276 152.471 2.2972 152.744 1.03795 159.616C0.534248 162.661 0.156473 175.545 0.0305476 178.551C-0.221303 184.173 0.995975 184.915 6.99842 187.921C12.2453 190.498 14.6799 191.279 14.6799 201.547C14.6799 269.285 47.7563 290.211 92.1659 291.851C139.136 293.569 177.333 268.699 193.242 230.594C204.198 204.319 210.662 190.928 217.042 190.264C223.38 190.928 229.844 204.358 240.842 230.594C256.75 268.738 294.948 293.569 341.918 291.851C386.37 290.211 419.404 269.285 419.404 201.547C419.404 191.279 421.839 190.498 427.086 187.921C433.004 184.915 434.221 184.173 433.969 178.551ZM179.348 198.267C167.427 230.555 153.114 272.76 92.7536 270.651C48.134 269.129 35.1637 239.496 34.2403 200.181C33.6106 174.686 37.5143 168.791 54.892 165.472C71.1784 162.349 87.8845 160.865 104.339 161.451C124.151 162.193 146.818 166.175 162.013 172.461C181.447 180.581 183.588 186.867 179.348 198.267ZM399.718 200.22C398.794 239.496 385.824 269.168 341.204 270.69C280.886 272.76 266.573 230.555 254.652 198.267C250.412 186.867 252.553 180.542 271.987 172.461C287.182 166.175 309.849 162.154 329.661 161.451C346.115 160.865 362.822 162.349 379.108 165.472C396.486 168.791 400.347 174.725 399.718 200.22Z" fill="black"/>
<path fill-rule="evenodd" clip-rule="evenodd" d="M433.969 178.551C433.844 175.506 433.508 162.661 432.962 159.616C431.703 152.744 430.947 152.432 423.518 151.222C304.098 131.623 282.817 155.36 217 156.649C151.183 155.399 129.86 131.623 10.4824 151.222C3.05276 152.471 2.2972 152.744 1.03795 159.616C0.534248 162.661 0.156473 175.545 0.0305476 178.551C-0.221303 184.173 0.995975 184.915 6.99842 187.921C12.2453 190.498 14.6799 191.279 14.6799 201.547C14.6799 269.285 47.7563 290.211 92.1659 291.851C139.136 293.569 177.333 268.699 193.242 230.594C204.198 204.319 210.662 190.928 217.042 190.264C223.38 190.928 229.844 204.358 240.842 230.594C256.75 268.738 294.948 293.569 341.918 291.851C386.37 290.211 419.404 269.285 419.404 201.547C419.404 191.279 421.839 190.498 427.086 187.921C433.004 184.915 434.221 184.173 433.969 178.551ZM179.348 198.267C167.427 230.555 153.114 272.76 92.7536 270.651C48.134 269.129 35.1637 239.496 34.2403 200.181C33.6106 174.686 37.5143 168.791 54.892 165.472C71.1784 162.349 87.8845 160.865 104.339 161.451C124.151 162.193 146.818 166.175 162.013 172.461C181.447 180.581 183.588 186.867 179.348 198.267ZM399.718 200.22C398.794 239.496 385.824 269.168 341.204 270.69C280.886 272.76 266.573 230.555 254.652 198.267C250.412 186.867 252.553 180.542 271.987 172.461C287.182 166.175 309.849 162.154 329.661 161.451C346.115 160.865 362.822 162.349 379.108 165.472C396.486 168.791 400.347 174.725 399.718 200.22Z" fill="#4B2E7C"/>
<path fill-rule="evenodd" clip-rule="evenodd" d="M433.969 178.551C433.844 175.506 433.508 162.661 432.962 159.616C431.703 152.744 430.947 152.432 423.518 151.222C304.098 131.623 282.817 155.36 217 156.649C151.183 155.399 129.86 131.623 10.4824 151.222C3.05276 152.471 2.2972 152.744 1.03795 159.616C0.534248 162.661 0.156473 175.545 0.0305476 178.551C-0.221303 184.173 0.995975 184.915 6.99842 187.921C12.2453 190.498 14.6799 191.279 14.6799 201.547C14.6799 269.285 47.7563 290.211 92.1659 291.851C139.136 293.569 177.333 268.699 193.242 230.594C204.198 204.319 210.662 190.928 217.042 190.264C223.38 190.928 229.844 204.358 240.842 230.594C256.75 268.738 294.948 293.569 341.918 291.851C386.37 290.211 419.404 269.285 419.404 201.547C419.404 191.279 421.839 190.498 427.086 187.921C433.004 184.915 434.221 184.173 433.969 178.551ZM179.348 198.267C167.427 230.555 153.114 272.76 92.7536 270.651C48.134 269.129 35.1637 239.496 34.2403 200.181C33.6106 174.686 37.5143 168.791 54.892 165.472C71.1784 162.349 87.8845 160.865 104.339 161.451C124.151 162.193 146.818 166.175 162.013 172.461C181.447 180.581 183.588 186.867 179.348 198.267ZM399.718 200.22C398.794 239.496 385.824 269.168 341.204 270.69C280.886 272.76 266.573 230.555 254.652 198.267C250.412 186.867 252.553 180.542 271.987 172.461C287.182 166.175 309.849 162.154 329.661 161.451C346.115 160.865 362.822 162.349 379.108 165.472C396.486 168.791 400.347 174.725 399.718 200.22Z" fill="black" fill-opacity="0.5"/>
<path d="M217.505 316.978C214.725 316.482 211.866 316.652 209.164 317.473C206.462 318.293 203.992 319.742 201.957 321.7C200.721 322.893 199.067 323.553 197.35 323.538C195.633 323.523 193.99 322.834 192.776 321.62C191.561 320.406 190.873 318.763 190.858 317.046C190.843 315.329 191.503 313.674 192.696 312.439C196.212 308.998 200.497 306.444 205.196 304.987C209.895 303.531 214.873 303.214 219.719 304.062C232.568 306.263 239.19 313.605 242.563 320.861C243.273 322.434 243.333 324.223 242.732 325.84C242.131 327.456 240.916 328.771 239.351 329.497C237.786 330.223 235.998 330.303 234.375 329.719C232.752 329.134 231.425 327.933 230.682 326.376C228.848 322.42 225.502 318.34 217.505 316.978Z" fill="#4B2E7C"/>
<path d="M157.958 332.756V295.64C157.958 291.008 156.118 286.565 152.843 283.29C149.567 280.014 145.124 278.174 140.492 278.174C130.303 278.174 122.237 286.883 122.092 297.083C121.849 313.592 119.569 335.449 109.441 338.821C73.053 350.95 60.9236 405.532 91.247 429.791C115.506 449.198 139.764 447.985 157.958 447.985H191.484C194.863 447.988 198.145 446.849 200.796 444.753C203.447 442.657 205.313 439.727 206.089 436.438C206.866 433.149 206.508 429.694 205.075 426.633C203.641 423.573 201.216 421.086 198.191 419.578L194.346 417.661H203.08C205.785 417.661 208.413 416.755 210.545 415.089C212.677 413.423 214.19 411.092 214.845 408.467L215.658 405.168C216.008 403.772 216.036 402.315 215.738 400.907C215.44 399.499 214.826 398.177 213.94 397.043C213.055 395.908 211.922 394.991 210.629 394.36C209.335 393.729 207.915 393.402 206.476 393.403L210.478 391.401C212.919 390.176 214.971 388.297 216.405 385.973C217.839 383.649 218.598 380.972 218.598 378.241C218.598 375.51 217.839 372.833 216.405 370.509C214.971 368.185 212.919 366.306 210.478 365.081L206.476 363.079H227.702C231.723 363.079 235.58 361.482 238.423 358.639C241.266 355.795 242.864 351.939 242.864 347.918C242.864 343.896 241.266 340.04 238.423 337.197C235.58 334.353 231.723 332.756 227.702 332.756H157.958Z" fill="#5A60F3"/>
<path d="M157.958 332.756V295.64C157.958 291.008 156.118 286.565 152.843 283.29C149.567 280.014 145.124 278.174 140.492 278.174C130.303 278.174 122.237 286.883 122.092 297.083C121.849 313.592 119.569 335.449 109.441 338.821C73.053 350.95 60.9236 405.532 91.247 429.791C115.506 449.198 139.764 447.985 157.958 447.985H191.484C194.863 447.988 198.145 446.849 200.796 444.753C203.447 442.657 205.313 439.727 206.089 436.438C206.866 433.149 206.508 429.694 205.075 426.633C203.641 423.573 201.216 421.086 198.191 419.578L194.346 417.661H203.08C205.785 417.661 208.413 416.755 210.545 415.089C212.677 413.423 214.19 411.092 214.845 408.467L215.658 405.168C216.008 403.772 216.036 402.315 215.738 400.907C215.44 399.499 214.826 398.177 213.94 397.043C213.055 395.908 211.922 394.991 210.629 394.36C209.335 393.729 207.915 393.402 206.476 393.403L210.478 391.401C212.919 390.176 214.971 388.297 216.405 385.973C217.839 383.649 218.598 380.972 218.598 378.241C218.598 375.51 217.839 372.833 216.405 370.509C214.971 368.185 212.919 366.306 210.478 365.081L206.476 363.079H227.702C231.723 363.079 235.58 361.482 238.423 358.639C241.266 355.795 242.864 351.939 242.864 347.918C242.864 343.896 241.266 340.04 238.423 337.197C235.58 334.353 231.723 332.756 227.702 332.756H157.958Z" fill="#EE56FF" fill-opacity="0.12"/>
<path d="M157.958 332.756V295.64C157.958 291.008 156.118 286.565 152.843 283.29C149.567 280.014 145.124 278.174 140.492 278.174C130.303 278.174 122.237 286.883 122.092 297.083C121.849 313.592 119.569 335.449 109.441 338.821C73.053 350.95 60.9236 405.532 91.247 429.791C115.506 449.198 139.764 447.985 157.958 447.985H191.484C194.863 447.988 198.145 446.849 200.796 444.753C203.447 442.657 205.313 439.727 206.089 436.438C206.866 433.149 206.508 429.694 205.075 426.633C203.641 423.573 201.216 421.086 198.191 419.578L194.346 417.661H203.08C205.785 417.661 208.413 416.755 210.545 415.089C212.677 413.423 214.19 411.092 214.845 408.467L215.658 405.168C216.008 403.772 216.036 402.315 215.738 400.907C215.44 399.499 214.826 398.177 213.94 397.043C213.055 395.908 211.922 394.991 210.629 394.36C209.335 393.729 207.915 393.402 206.476 393.403L210.478 391.401C212.919 390.176 214.971 388.297 216.405 385.973C217.839 383.649 218.598 380.972 218.598 378.241C218.598 375.51 217.839 372.833 216.405 370.509C214.971 368.185 212.919 366.306 210.478 365.081L206.476 363.079H227.702C231.723 363.079 235.58 361.482 238.423 358.639C241.266 355.795 242.864 351.939 242.864 347.918C242.864 343.896 241.266 340.04 238.423 337.197C235.58 334.353 231.723 332.756 227.702 332.756H157.958Z" fill="black" fill-opacity="0.175"/>
<path d="M312.06 165.143C292.895 165.143 277.491 173.924 271.79 178.679C270.599 179.721 269.862 181.189 269.738 182.767C269.613 184.345 270.111 185.91 271.124 187.126C272.138 188.342 273.587 189.114 275.162 189.276C276.737 189.438 278.313 188.978 279.553 187.994C283.556 184.671 296.292 177.272 312.06 177.272C327.828 177.272 340.564 184.671 344.566 187.994C345.807 188.978 347.382 189.438 348.957 189.276C350.532 189.114 351.981 188.342 352.995 187.126C354.008 185.91 354.506 184.345 354.382 182.767C354.257 181.189 353.521 179.721 352.329 178.679C346.628 173.924 331.224 165.143 312.06 165.143Z" fill="#4B2E7C"/>
<path d="M81.7121 133.135C86.5275 128.331 99.7121 119.234 116.329 119.234C132.946 119.234 146.131 128.331 150.946 133.135C152.085 134.273 152.725 135.818 152.725 137.428C152.725 139.039 152.085 140.583 150.946 141.722C149.808 142.861 148.263 143.501 146.653 143.501C145.042 143.501 143.498 142.861 142.359 141.722C139.084 138.447 128.823 131.364 116.329 131.364C103.836 131.364 93.5625 138.447 90.2997 141.722C89.7359 142.286 89.0664 142.733 88.3297 143.038C87.593 143.344 86.8034 143.501 86.0059 143.501C85.2085 143.501 84.4189 143.344 83.6821 143.038C82.9454 142.733 82.276 142.286 81.7121 141.722C81.1483 141.158 80.701 140.489 80.3958 139.752C80.0907 139.015 79.9336 138.226 79.9336 137.428C79.9336 136.631 80.0907 135.841 80.3958 135.105C80.701 134.368 81.1483 133.698 81.7121 133.135Z" fill="#4B2E7C"/>
</svg>
